<svg id="ic_phone_paused_24px" xmlns="http://www.w3.org/2000/svg" viewBox="0 0 32 32">
  <defs>
    <style>
      .cls-1 {
        fill: none;
      }
    </style>
  </defs>
  <path id="패스_17" data-name="패스 17" class="cls-1" d="M0,0H32V32H0Z"/>
  <path id="패스_18" data-name="패스 18" d="M23.222,3H20.333V13.111h2.889Zm4.333,18.056a16.409,16.409,0,0,1-5.157-.823,1.474,1.474,0,0,0-1.473.347l-3.178,3.178a21.732,21.732,0,0,1-9.519-9.519l3.178-3.192A1.387,1.387,0,0,0,11.768,9.6a16.409,16.409,0,0,1-.823-5.157A1.449,1.449,0,0,0,9.5,3H4.444A1.449,1.449,0,0,0,3,4.444,24.553,24.553,0,0,0,27.556,29,1.449,1.449,0,0,0,29,27.556V22.5A1.449,1.449,0,0,0,27.556,21.056ZM26.111,3V13.111H29V3Z" transform="translate(0 0)"/>
</svg>
