<svg id="ic_phonelink_ring_24px" xmlns="http://www.w3.org/2000/svg" viewBox="0 0 32 32">
  <defs>
    <style>
      .cls-1 {
        fill: none;
      }
    </style>
  </defs>
  <path id="패스_7" data-name="패스 7" class="cls-1" d="M0,0H32V32H0Z"/>
  <path id="패스_8" data-name="패스 8" d="M26.133,9.933,24.8,11.267a6.116,6.116,0,0,1,0,8.667l1.333,1.333a7.672,7.672,0,0,0,0-11.333Zm-2.8,2.8L22,14.067a2.6,2.6,0,0,1,0,3.067l1.333,1.333A4.023,4.023,0,0,0,23.333,12.733ZM18,1H4.667A2.675,2.675,0,0,0,2,3.667v24a2.675,2.675,0,0,0,2.667,2.667H18a2.675,2.675,0,0,0,2.667-2.667v-24A2.675,2.675,0,0,0,18,1Zm0,25.333H4.667V5H18Z" transform="translate(0.667 0.333)"/>
</svg>
