<svg id="ic_phone_in_talk_24px" xmlns="http://www.w3.org/2000/svg" viewBox="0 0 32 32">
  <defs>
    <style>
      .cls-1 {
        fill: none;
      }
    </style>
  </defs>
  <path id="패스_9" data-name="패스 9" class="cls-1" d="M0,0H32V32H0Z"/>
  <path id="패스_10" data-name="패스 10" d="M27.556,21.056a16.409,16.409,0,0,1-5.157-.823,1.474,1.474,0,0,0-1.473.347l-3.178,3.178a21.732,21.732,0,0,1-9.519-9.519l3.178-3.192A1.387,1.387,0,0,0,11.768,9.6a16.409,16.409,0,0,1-.823-5.157A1.449,1.449,0,0,0,9.5,3H4.444A1.449,1.449,0,0,0,3,4.444,24.553,24.553,0,0,0,27.556,29,1.449,1.449,0,0,0,29,27.556V22.5A1.449,1.449,0,0,0,27.556,21.056ZM26.111,16H29A13,13,0,0,0,16,3V5.889A10.1,10.1,0,0,1,26.111,16Zm-5.778,0h2.889A7.225,7.225,0,0,0,16,8.778v2.889A4.328,4.328,0,0,1,20.333,16Z" transform="translate(0 0)"/>
</svg>
