<svg id="ic_phone_forwarded_24px" xmlns="http://www.w3.org/2000/svg" viewBox="0 0 92.011 92.011">
  <defs>
    <style>
      .cls-1 {
        fill: none;
      }

      .cls-2 {
        fill: #fff;
      }
    </style>
  </defs>
  <path id="패스_23" data-name="패스 23" class="cls-1" d="M0,0H92.011V92.011H0Z"/>
  <path id="패스_24" data-name="패스 24" class="cls-2" d="M60.507,39.338,79.676,20.169,60.507,1V12.5H45.172V27.837H60.507ZM68.175,56.59A43.553,43.553,0,0,1,54.488,54.4a3.913,3.913,0,0,0-3.91.92l-8.434,8.434A57.681,57.681,0,0,1,16.878,38.495l8.434-8.473a3.681,3.681,0,0,0,.958-3.834A43.553,43.553,0,0,1,24.086,12.5a3.845,3.845,0,0,0-3.834-3.834H6.834A3.845,3.845,0,0,0,3,12.5,65.169,65.169,0,0,0,68.175,77.676a3.845,3.845,0,0,0,3.834-3.834V60.424A3.845,3.845,0,0,0,68.175,56.59Z" transform="translate(8.501 2.834)"/>
</svg>
