<svg id="ic_record_voice_over_24px" xmlns="http://www.w3.org/2000/svg" viewBox="0 0 24 24">
  <defs>
    <style>
      .cls-1 {
        fill: #ccc;
      }

      .cls-2 {
        fill: none;
      }
    </style>
  </defs>
  <circle id="타원_1" data-name="타원 1" class="cls-1" cx="4" cy="4" r="4" transform="translate(5 5)"/>
  <path id="패스_19" data-name="패스 19" class="cls-1" d="M9,15c-2.67,0-8,1.34-8,4v2H17V19C17,16.34,11.67,15,9,15Zm7.76-9.64L15.08,7.05a3.317,3.317,0,0,1,0,3.89l1.68,1.69a5.117,5.117,0,0,0,0-7.27ZM20.07,2,18.44,3.63a7.978,7.978,0,0,1,0,10.74L20.07,16A9.829,9.829,0,0,0,20.07,2Z"/>
  <path id="패스_20" data-name="패스 20" class="cls-2" d="M0,0H24V24H0Z"/>
</svg>
