<svg id="outline-voice_over_off-24px" xmlns="http://www.w3.org/2000/svg" viewBox="0 0 24 24">
  <defs>
    <style>
      .cls-1 {
        fill: none;
      }

      .cls-2 {
        fill: #ccc;
      }
    </style>
  </defs>
  <path id="패스_21" data-name="패스 21" class="cls-1" d="M0,0H24V24H0Z"/>
  <path id="패스_22" data-name="패스 22" class="cls-2" d="M16.76,5.36,15.08,7.05a3.318,3.318,0,0,1,.09,3.74l1.7,1.7a5.1,5.1,0,0,0-.11-7.13ZM20.07,2,18.44,3.63a7.96,7.96,0,0,1,.14,10.56l1.64,1.64A9.816,9.816,0,0,0,20.07,2ZM9.43,5.04l3.53,3.53A3.979,3.979,0,0,0,9.43,5.04ZM4.41,2.86,3,4.27,5.62,6.89A3.9,3.9,0,0,0,5,9a4,4,0,0,0,4,4,3.9,3.9,0,0,0,2.11-.62l4.4,4.4A13.508,13.508,0,0,0,9,15c-2.67,0-8,1.34-8,4v2H17V19a2.041,2.041,0,0,0-.29-1.02L19.73,21l1.41-1.41ZM3,19c.22-.72,3.31-2,6-2s5.8,1.29,6,2Zm6-8A2.006,2.006,0,0,1,7,9a1.838,1.838,0,0,1,.11-.62l2.51,2.51A1.839,1.839,0,0,1,9,11Z"/>
</svg>
